<svg width="512" height="512" xmlns="http://www.w3.org/2000/svg">
 <!-- Created with Method Draw - http://github.com/duopixel/Method-Draw/ -->

 <g>
  <title>background</title>
  <rect fill="#fff" id="canvas_background" height="514" width="514" y="-1" x="-1"/>
  <g display="none" overflow="visible" y="0" x="0" height="100%" width="100%" id="canvasGrid">
   <rect fill="url(#gridpattern)" stroke-width="0" y="0" x="0" height="100%" width="100%"/>
  </g>
 </g>
 <g>
  <title>Layer 1</title>
  <g stroke="null" id="svg_5">
   <path fill="#e5e5e5" stroke="null" id="svg_4" d="m275.104938,197.796253l115.46605,0l-115.46605,-115.46605l0,115.46605m-146.956791,-146.956791l167.950618,0l125.962964,125.962964l0,251.925927a41.987655,41.987655 0 0 1 -41.987655,41.987655l-251.925927,0c-23.303148,0 -41.987655,-18.894445 -41.987655,-41.987655l0,-335.901237a41.987655,41.987655 0 0 1 41.987655,-41.987655m103.499569,219.175557c8.607469,18.894445 19.524259,34.429877 32.120556,45.136729l8.607469,6.718025c-18.26463,3.359012 -43.457222,9.237284 -70.119383,19.524259l0,0l-2.309321,0.839753l10.496914,-21.83358c9.447222,-18.26463 16.375185,-34.849753 21.203766,-50.385185m136.040001,79.986482c3.778889,-3.778889 5.668333,-8.607469 5.878272,-13.855926c0.629815,-4.198765 -0.419877,-8.187593 -2.519259,-11.546605c-6.08821,-9.867099 -21.83358,-14.485741 -47.865926,-14.485741l-27.082037,1.469568l-18.26463,-12.17642c-13.226111,-10.91679 -25.192593,-30.021173 -33.590124,-53.744198l0.839753,-2.939136c6.927963,-27.92179 13.436049,-61.721852 -0.419877,-75.577778c-3.359012,-3.359012 -7.977654,-5.038519 -12.806235,-5.038519l-5.038519,0c-7.767716,0 -14.695679,8.187593 -16.585124,16.165247c-7.767716,27.92179 -3.149074,43.247284 4.618642,68.649815l0,0.209938c-5.248457,18.474568 -11.966482,39.888272 -22.673333,61.511914l-20.154074,37.788889l-18.684506,10.286975c-25.192593,15.74537 -37.159074,33.380185 -39.468395,44.506914c-0.839753,3.988827 -0.419877,7.557778 1.049691,11.336667l0.629815,1.049691l10.077037,6.508086l9.237284,2.309321c17.005,0 36.319321,-19.944136 62.351667,-64.45105l3.778889,-1.469568c21.623642,-6.927963 48.495741,-11.756543 84.605124,-15.74537c21.623642,10.706852 47.026173,15.535432 62.981482,15.535432c9.237284,0 15.535432,-2.309321 19.104383,-6.298148m-8.607469,-14.905617l1.889444,2.309321c-0.209938,2.099383 -0.839753,2.309321 -1.889444,2.729198l-0.839753,0l-3.988827,0.419877c-9.657161,0 -24.562778,-3.988827 -39.888272,-10.706852c1.889444,-2.099383 2.729198,-2.099383 4.82858,-2.099383c29.391358,0 37.788889,5.248457 39.888272,7.34784m-192.513396,30.650988c-13.645988,24.982654 -26.032346,38.83858 -35.479568,41.987655c1.049691,-7.977654 10.496914,-21.83358 25.402531,-35.479568l10.077037,-6.508086m63.401358,-145.067347c-4.82858,-18.894445 -5.038519,-34.219938 -1.469568,-43.037346l1.469568,-2.519259l3.149074,1.049691c3.568951,5.038519 3.988827,11.756543 1.889444,23.09321l-0.629815,3.359012l-3.359012,17.214938l-1.049691,0.839753z"/>
  </g>
 </g>
</svg>
