<svg width="256" height="256" xmlns="http://www.w3.org/2000/svg">

 <g>
  <title>background</title>
  <rect fill="none" id="canvas_background" height="258" width="258" y="-1" x="-1"/>
 </g>
 <g>
  <title>Layer 1</title>
  <path stroke="null" id="svg_1" d="m47.363637,43l163.636368,0l0,109.090912l-163.636368,0l0,-109.090912m81.818184,27.272728a27.272728,27.272728 0 0 1 27.272728,27.272728a27.272728,27.272728 0 0 1 -27.272728,27.272728a27.272728,27.272728 0 0 1 -27.272728,-27.272728a27.272728,27.272728 0 0 1 27.272728,-27.272728m-45.454547,-9.090909a18.181819,18.181819 0 0 1 -18.181819,18.181819l0,36.363637a18.181819,18.181819 0 0 1 18.181819,18.181819l90.909093,0a18.181819,18.181819 0 0 1 18.181819,-18.181819l0,-36.363637a18.181819,18.181819 0 0 1 -18.181819,-18.181819l-90.909093,0m-72.727275,18.181819l18.181819,0l0,90.909093l145.454549,0l0,18.181819l-163.636368,0l0,-109.090912z" fill="#000000"/>
  <g stroke="null" id="svg_6">
   <path fill="#ff0000" stroke="null" id="svg_5" d="m186.54657,227.12445l-28.09316,0l0,-63.2096l-24.5815,24.58151l-16.99636,-16.99636l55.62444,-55.62444l55.62445,55.62444l-16.99636,16.99636l-24.58151,-24.58151l0,63.2096z"/>
  </g>
 </g>
</svg>