<svg width="256" height="256" xmlns="http://www.w3.org/2000/svg">

 <g>
  <title>background</title>
  <rect fill="none" id="canvas_background" height="258" width="258" y="-1" x="-1"/>
 </g>
 <g>
  <title>Layer 1</title>
  <g stroke="null" id="svg_1">
   <g stroke="null" id="svg_2">
    <path stroke="null" id="svg_3" d="m231.119699,118.444294c-3.32501,-1.780903 -7.306141,-1.588506 -10.453554,0.513058l-54.981055,36.693502l0,-28.163916c0,-3.778868 -2.116364,-7.251875 -5.446306,-9.032778c-3.329943,-1.780903 -7.385073,-1.583573 -10.537419,0.513058l-56.535028,37.680152l0,-78.931976c0,-2.096631 -1.608239,-3.956465 -3.699936,-3.956465l-66.164729,0c-2.091697,0 -3.793668,1.859835 -3.793668,3.956465l0,159.570857c0,2.091697 1.701971,3.769002 3.793668,3.769002l209.480532,0c2.091697,0 3.70487,-1.677304 3.70487,-3.769002l0,-109.814112c0.004933,-3.773935 -2.027565,-7.246942 -5.367374,-9.027845zm-89.415129,75.409637c0,1.475041 -1.193846,2.668887 -2.678754,2.668887l-18.623013,0c-1.479975,0 -2.673821,-1.193846 -2.673821,-2.668887l0,-18.637813c0,-1.479975 1.193846,-2.673821 2.673821,-2.673821l18.623013,0c1.484908,0 2.678754,1.193846 2.678754,2.673821l0,18.637813zm69.652536,0c0,1.475041 -1.18398,2.668887 -2.668887,2.668887l-18.627946,0c-1.479975,0 -2.673821,-1.193846 -2.673821,-2.668887l0,-18.637813c0,-1.479975 1.193846,-2.673821 2.673821,-2.673821l18.627946,0c1.484908,0 2.668887,1.193846 2.668887,2.673821l0,18.637813z"/>
    <path stroke="null" id="svg_4" d="m23.301672,58.909851l66.164729,0c2.091697,0 3.699936,-1.440509 3.699936,-3.532206l0,-30.211214c0,-5.658436 -4.494189,-10.221691 -10.157559,-10.221691l-53.249485,0c-5.658436,0 -10.246357,4.563255 -10.246357,10.221691l0,30.216147c0,2.086764 1.701971,3.527273 3.788735,3.527273z"/>
   </g>
  </g>
 </g>
</svg>