<svg width="256" height="256" xmlns="http://www.w3.org/2000/svg">

 <g>
  <title>background</title>
  <rect fill="none" id="canvas_background" height="258" width="258" y="-1" x="-1"/>
 </g>
 <g>
  <title>Layer 1</title>
  <path stroke="null" id="svg_1" d="m47.363637,43l163.636368,0l0,109.090912l-163.636368,0l0,-109.090912m81.818184,27.272728a27.272728,27.272728 0 0 1 27.272728,27.272728a27.272728,27.272728 0 0 1 -27.272728,27.272728a27.272728,27.272728 0 0 1 -27.272728,-27.272728a27.272728,27.272728 0 0 1 27.272728,-27.272728m-45.454547,-9.090909a18.181819,18.181819 0 0 1 -18.181819,18.181819l0,36.363637a18.181819,18.181819 0 0 1 18.181819,18.181819l90.909093,0a18.181819,18.181819 0 0 1 18.181819,-18.181819l0,-36.363637a18.181819,18.181819 0 0 1 -18.181819,-18.181819l-90.909093,0m-72.727275,18.181819l18.181819,0l0,90.909093l145.454549,0l0,18.181819l-163.636368,0l0,-109.090912z" fill="#000000"/>
  <g stroke="null" id="svg_11">
   <path fill="#00bf00" stroke="null" id="svg_10" d="m156.574625,113.875555l28.850731,0l0,64.914145l25.24439,-25.24439l17.454692,17.454692l-57.124447,57.124447l-57.124447,-57.124447l17.454692,-17.454692l25.24439,25.24439l0,-64.914145z"/>
  </g>
 </g>
</svg>