<svg width="256" height="256" xmlns="http://www.w3.org/2000/svg">

 <g>
  <title>background</title>
  <rect fill="none" id="canvas_background" height="258" width="258" y="-1" x="-1"/>
 </g>
 <g>
  <title>Layer 1</title>
  <path stroke="null" id="svg_1" d="m103.2315,17l-24.768494,24.768494l0,24.768494l-37.15274,0c-14.241884,0 -23.282384,12.384247 -24.768494,24.768494l-12.384247,123.842468c-1.48611,12.384247 6.687493,24.768494 24.768494,24.768494l198.147949,0c18.081,0 26.254603,-12.384247 24.768494,-24.768494l-12.384247,-123.842468c-1.48611,-12.384247 -11.641192,-24.768494 -24.768494,-24.768494l-37.15274,0l0,-24.768494l-24.768494,-24.768494l-49.536987,0m0,24.768494l49.536987,0l0,24.768494l-49.536987,0l0,-24.768494m12.384247,61.921234l24.768494,0l0,37.15274l37.15274,0l0,24.768494l-37.15274,0l0,37.15274l-24.768494,0l0,-37.15274l-37.15274,0l0,-24.768494l37.15274,0l0,-37.15274z"/>
 </g>
</svg>