<svg width="256" height="256" xmlns="http://www.w3.org/2000/svg">

 <g>
  <title>background</title>
  <rect fill="none" id="canvas_background" height="258" width="258" y="-1" x="-1"/>
 </g>
 <g>
  <title>Layer 1</title>
  <g stroke="null" id="svg_1">
   <path stroke="null" id="svg_2" d="m235.500585,127.869836l-3.482227,0l-22.166091,-39.358995c-0.839429,-1.492771 -2.432715,-2.370233 -4.299471,-2.370233l-26.063506,0l5.164255,-27.448066c0.616668,-3.278482 -1.539406,-5.935317 -4.819247,-5.935317l-137.829378,0.05886c-3.543351,0 -6.414796,2.871445 -6.414796,6.414344c0,3.542898 2.871445,6.414344 6.414796,6.414344l75.857864,0c3.019953,0.520229 5.320007,3.145822 5.320007,6.314735c0,3.358169 -2.582128,6.109632 -5.869213,6.386725l-95.835282,0c-3.542445,0.000453 -6.414796,2.872351 -6.414796,6.414796c0,3.542898 2.872351,6.414344 6.414796,6.414344l96.105131,0c3.157141,0.401151 5.599364,3.091037 5.599364,6.357295c0,3.280746 -2.464408,5.981046 -5.641924,6.363181l-86.65544,0c-3.542445,0 -6.413891,2.872351 -6.413891,6.414796c0,3.542445 2.871445,6.414344 6.413891,6.414344l20.087893,0l-10.574362,56.19693c-0.616215,3.27803 1.540312,5.935317 4.8197,5.935317l9.462821,0c-1.830535,13.56896 7.399111,24.385553 21.143744,24.385553c13.745539,0 27.046462,-10.817045 30.321322,-24.385553l49.959165,0l14.124052,0c-1.830535,13.56896 7.398205,24.385553 21.143744,24.385553s27.045556,-10.817045 30.322228,-24.385553l4.210276,0l5.253903,0c3.27803,0 6.436076,-2.657287 7.052292,-5.935317l1.911128,-10.156459c0.573202,-3.046666 -1.252352,-5.55454 -4.144625,-5.893662l4.34022,-23.064833c0.617574,-3.278935 -1.540312,-5.937128 -4.818341,-5.937128zm-140.925396,49.602385c-1.442514,7.663979 -8.851133,13.899027 -16.515565,13.899027c-7.664432,0 -12.725909,-6.235048 -11.283848,-13.899027c1.441609,-7.663979 8.850227,-13.899027 16.515565,-13.899027c7.662621,-0.000453 12.726362,6.235048 11.283848,13.899027zm115.546473,0c-1.442061,7.663979 -8.850227,13.899027 -16.514207,13.899027c-7.665337,0 -12.726362,-6.235048 -11.283848,-13.899027c1.442061,-7.663979 8.849322,-13.899027 16.515112,-13.899027c7.664432,-0.000453 12.726362,6.235048 11.282942,13.899027zm-38.486061,-49.602385l5.617474,-29.858142l23.100601,0l16.814391,29.858142l-45.532467,0z"/>
  </g>
 </g>
</svg>