<svg width="256" height="256" xmlns="http://www.w3.org/2000/svg">

 <g>
  <title>background</title>
  <rect fill="none" id="canvas_background" height="258" width="258" y="-1" x="-1"/>
 </g>
 <g>
  <title>Layer 1</title>
  <g stroke="null" id="svg_1">
   <g stroke="null" id="svg_2">
    <path stroke="null" id="svg_3" d="m170.677367,56.844771l0,-5.023396c0,-5.70417 -4.629264,-10.326268 -10.326268,-10.326268l-16.947692,0c1.411711,-2.551111 2.214307,-5.711336 2.214307,-8.921724c-0.007166,-10.555582 -8.592086,-19.154834 -19.140502,-19.154834c-10.548416,0 -19.12617,8.599252 -19.12617,19.154834c0,3.210387 0.802597,6.370612 2.214307,8.921724l-13.902124,0c-5.70417,0 -10.326268,4.622098 -10.326268,10.326268l0,5.023396l-23.031663,0c-8.649414,0 -15.657805,7.015556 -15.657805,15.664971l0,154.399569c0,8.649414 7.00839,15.672137 15.657805,15.672137l131.382238,0c8.649414,0 15.664971,-7.015556 15.664971,-15.672137l0,-154.399569c0,-8.649414 -7.015556,-15.664971 -15.664971,-15.664971l-23.010165,0zm-55.594164,-24.264223c0,-6.291786 5.109389,-11.422673 11.386843,-11.422673c6.291786,0 11.401175,5.130887 11.401175,11.422673c0,3.597354 -1.676854,6.685918 -4.299626,8.921724l-14.195932,0c-2.615606,-2.242972 -4.29246,-5.32437 -4.29246,-8.921724zm78.604329,185.012905c0,5.317204 -4.313958,9.631162 -9.631162,9.631162l-112.119913,0c-5.317204,0 -9.631162,-4.313958 -9.631162,-9.631162l0,-135.45255c0,-5.32437 4.313958,-9.631162 9.631162,-9.631162l13.386169,0c0,4.235132 3.432535,7.674832 7.667666,7.674832l70.005077,0c4.242298,0 7.667666,-3.432535 7.667666,-7.674832l13.393335,0c5.310038,0 9.631162,4.313958 9.631162,9.631162l0,135.45255l0,0z"/>
    <circle stroke="null" id="svg_4" r="13.608317" cy="107.279383" cx="91.184449"/>
    <path stroke="null" id="svg_5" d="m168.606381,99.683378l-46.407296,0c-4.270962,0 -7.739327,3.403871 -7.739327,7.674832c0,4.270962 3.461199,7.674832 7.739327,7.674832l46.421628,0c4.270962,0 7.724995,-3.403871 7.724995,-7.674832c0,-4.270962 -3.461199,-7.674832 -7.739327,-7.674832z"/>
    <circle stroke="null" id="svg_6" r="13.608317" cy="145.882859" cx="91.184449"/>
    <path stroke="null" id="svg_7" d="m168.606381,138.043207l-46.407296,0c-4.270962,0 -7.739327,3.56869 -7.739327,7.839651s3.461199,7.825319 7.739327,7.825319l46.421628,0c4.270962,0 7.724995,-3.554357 7.724995,-7.825319s-3.461199,-7.839651 -7.739327,-7.839651z"/>
    <circle stroke="null" id="svg_8" r="13.601149" cy="187.13777" cx="91.184449"/>
    <path stroke="null" id="svg_9" d="m168.606381,179.27662l-46.407296,0c-4.270962,0 -7.739327,3.56869 -7.739327,7.839651s3.461199,7.825319 7.739327,7.825319l46.421628,0c4.270962,0 7.724995,-3.561524 7.724995,-7.825319c0,-4.270962 -3.461199,-7.839651 -7.739327,-7.839651z"/>
   </g>
  </g>
 </g>
</svg>