<svg width="256" height="256" xmlns="http://www.w3.org/2000/svg">

 <g>
  <title>background</title>
  <rect fill="none" id="canvas_background" height="258" width="258" y="-1" x="-1"/>
 </g>
 <g>
  <title>Layer 1</title>
  <g stroke="null" id="svg_1">
   <g stroke="null" id="svg_2">
    <g stroke="null" id="svg_3">
     <path stroke="null" id="svg_4" d="m224.550307,96.471475l-14.631453,0c1.717711,9.643628 -2.407044,19.809406 -11.229279,25.267869c-3.898568,2.409853 -8.371735,3.685024 -12.941371,3.685024c-8.597454,0 -16.428774,-4.360776 -20.94643,-11.6662c-3.194718,-5.166714 -4.230121,-11.354315 -3.161001,-17.287162l-67.280144,0c1.064438,5.932847 0.029503,12.119979 -3.164747,17.29044c-4.513909,7.301678 -12.34523,11.662454 -20.942683,11.662454c-4.572914,0 -9.045613,-1.275171 -12.946522,-3.685024c-8.820363,-5.458463 -12.946522,-15.624241 -11.226938,-25.267869l-14.630516,0c-10.156412,0 -18.386722,8.230309 -18.386722,18.386722c0,10.150793 8.230309,18.380634 18.386722,18.380634l2.028192,0l13.483658,82.006193c1.413787,8.578722 8.825982,14.878245 17.525056,14.878245l127.027272,0c8.698606,0 16.110801,-6.299523 17.523651,-14.878245l13.479444,-82.005256l2.033811,0c10.155476,0 18.38719,-8.230778 18.38719,-18.381102c0,-10.156412 -8.232651,-18.386722 -18.38719,-18.386722zm-133.086091,112.378024c-0.5554,0.081484 -1.10518,0.124567 -1.649808,0.124567c-5.366208,0 -10.069778,-3.929475 -10.896789,-9.398241l-7.636041,-50.89539c-0.90428,-6.026975 3.245762,-11.642317 9.272737,-12.546597c6.034467,-0.878056 11.63857,3.245762 12.546597,9.268991l7.637914,50.900073c0.90428,6.025102 -3.247636,11.641849 -9.27461,12.546597zm47.568612,-10.911774c0,6.096283 -4.936312,11.034936 -11.029317,11.034936c-6.095346,0 -11.029317,-4.940059 -11.029317,-11.034936l0,-50.898668c0,-6.089726 4.934439,-11.029785 11.029317,-11.029785c6.093004,0 11.029317,4.940059 11.029317,11.029785l0,50.898668zm45.68887,-49.258225l-7.641192,50.89539c-0.821392,5.469702 -5.524493,9.398241 -10.890701,9.398241c-0.54697,0 -1.094877,-0.042615 -1.651681,-0.124567c-6.026506,-0.90428 -10.177017,-6.521496 -9.272737,-12.546597l7.636509,-50.900073c0.907558,-6.026975 6.489183,-10.177017 12.546129,-9.269459c6.02557,0.90428 10.177017,6.520559 9.273674,12.547066z"/>
     <path stroke="null" id="svg_5" d="m61.179019,115.485245c2.827105,1.751429 5.969843,2.585464 9.075116,2.585464c5.779246,0 11.42971,-2.902969 14.686712,-8.178328c3.004121,-4.858575 3.262621,-10.60504 1.282664,-15.524494l32.755928,-52.939972c2.960102,-4.786926 1.479817,-11.056946 -3.307109,-14.022667c-1.669945,-1.031657 -3.522526,-1.528051 -5.34935,-1.528051c-3.412008,0 -6.744405,1.714433 -8.676596,4.834692l-32.745158,52.939972c-5.28332,0.424277 -10.311887,3.212513 -13.316008,8.069684c-5.018733,8.108552 -2.507259,18.748246 5.593801,23.763701z"/>
     <path stroke="null" id="svg_6" d="m169.778828,94.367887c-1.979957,4.919454 -1.727077,10.665919 1.277981,15.524494c3.262621,5.275827 8.907466,8.178328 14.691863,8.178328c3.104337,0 6.243328,-0.834036 9.075116,-2.585464c8.101059,-5.015454 10.606914,-15.655617 5.590054,-23.763701c-2.99616,-4.85717 -8.02941,-7.645407 -13.308047,-8.069684l-32.75827,-52.939972c-1.926571,-3.120727 -5.259437,-4.834692 -8.672381,-4.834692c-1.825888,0 -3.678468,0.496394 -5.351223,1.528051c-4.785053,2.965721 -6.25363,9.235742 -3.305236,14.022667l32.760143,52.939972z"/>
    </g>
   </g>
  </g>
 </g>
</svg>