<svg width="256" height="256" xmlns="http://www.w3.org/2000/svg">

 <g>
  <title>background</title>
  <rect fill="none" id="canvas_background" height="258" width="258" y="-1" x="-1"/>
 </g>
 <g>
  <title>Layer 1</title>
  <g stroke="null" id="svg_1">
   <path stroke="null" id="svg_2" d="m231.868743,70.187528l-166.522506,-0.028823l-6.979651,-24.029379c-1.04036,-3.582698 -3.924452,-6.413264 -7.525908,-7.387285l-24.427864,-6.605414c-0.920494,-0.248881 -1.867066,-0.375152 -2.81318,-0.375152c-4.847692,0 -9.118016,3.27114 -10.384381,7.955045c-0.750761,2.77475 -0.375152,5.676228 1.05683,8.169156c1.431524,2.492929 3.747857,4.279017 6.523064,5.02932l18.588765,5.026575l37.737513,136.11692c-5.375191,2.652139 -8.860442,8.147654 -8.860442,14.266743c0,8.774889 7.138862,15.913293 15.913293,15.913293c8.774432,0 15.913751,-7.138862 15.913751,-15.913293c0,-0.207248 -0.004118,-0.413582 -0.011895,-0.62083l76.822369,0c-0.008693,0.207248 -0.011895,0.414497 -0.011895,0.62083c0,8.774889 7.138862,15.913293 15.913751,15.913293c8.774889,0 15.913293,-7.138862 15.913293,-15.913293c0,-8.065303 -6.131442,-14.826726 -13.978517,-15.792055c-19.094762,-3.083564 -97.023829,-6.852008 -97.023829,-6.852008l-2.559724,-10.01655l97.232907,0c4.971217,0 9.390687,-3.34068 10.74901,-8.122491l21.013068,-74.022457l7.722634,0c6.443001,0 11.666302,-5.223301 11.666302,-11.666302s-5.223758,-11.665844 -11.666759,-11.665844zm-123.848088,80.706104l-18.226424,0c-0.49822,-0.00915 -1.229765,0.105683 -1.563284,-1.066895c-0.423647,-1.488712 -1.017027,-3.534203 -1.017027,-3.534203l-14.284586,-50.320649c-0.06954,-0.244764 -0.019215,-0.51286 0.134048,-0.715533c0.154178,-0.204046 0.398484,-0.325741 0.654228,-0.325741l22.151334,0c0.386132,0 0.714618,0.263064 0.798341,0.640045l12.081256,54.097786l0.04392,0.166988c0.022875,0.074573 0.034313,0.154636 0.034313,0.238359c0,0.448352 -0.360969,0.812981 -0.806119,0.819844zm46.513317,-54.965667l-9.844986,54.326537c-0.083723,0.376067 -0.411752,0.638673 -0.797884,0.638673l-13.747936,0c-0.386589,0 -0.715076,-0.263521 -0.799714,-0.639588l-9.844071,-54.327452c-0.054443,-0.242476 0.004118,-0.493645 0.161041,-0.688998c0.156008,-0.194438 0.388877,-0.306069 0.638215,-0.306069l33.436079,0c0.249796,0 0.482665,0.11163 0.63913,0.307441c0.156466,0.193981 0.214568,0.446064 0.160126,0.689456zm46.570505,0.04575l-15.421936,54.324707c-0.099735,0.350904 -0.423647,0.596583 -0.787819,0.596583l-18.861436,0c-0.250254,0 -0.483122,-0.11163 -0.638673,-0.306526c-0.156466,-0.195353 -0.214568,-0.447894 -0.160583,-0.691286l12.131581,-54.326079c0.082808,-0.370577 0.419072,-0.639588 0.799714,-0.639588l22.150876,0c0.255286,0 0.499135,0.121238 0.652855,0.324826c0.154636,0.203131 0.204503,0.471227 0.135421,0.717363z"/>
  </g>
 </g>
</svg>