<svg width="256" height="256" xmlns="http://www.w3.org/2000/svg">

 <g>
  <title>background</title>
  <rect fill="none" id="canvas_background" height="258" width="258" y="-1" x="-1"/>
 </g>
 <g>
  <title>Layer 1</title>
  <g stroke="null" id="svg_1">
   <g stroke="null" id="svg_2">
    <path stroke="null" id="svg_3" d="m154.371251,88.813903c-3.662854,3.663301 -2.480826,8.732329 0.314521,12.132112l11.315162,-11.315162c-1.039307,-1.038412 -6.484597,-5.962483 -11.629683,-0.81695z"/>
    <path stroke="null" id="svg_4" d="m128.64806,145.558381c-0.368209,-0.609804 -0.863927,-1.232584 -1.433913,-1.80257l-3.330884,-3.331331c-0.125719,0.12214 -0.250543,0.245175 -0.372683,0.367314c-5.67749,5.67749 -6.926627,10.185927 -3.712962,13.398698c2.282628,2.283523 5.055606,2.236099 7.416976,-0.125719c2.249968,-2.248626 2.847246,-5.727599 1.45673,-8.466126l-0.023265,-0.040266z"/>
    <path stroke="null" id="svg_5" d="m236.112344,92.421727l-8.566791,-57.224089c-0.521667,-3.486131 -3.257958,-6.222869 -6.743641,-6.744089l-57.224089,-8.566791c-2.515723,-0.37671 -5.060527,0.46261 -6.858623,2.260706l-134.076903,134.076903c-3.131791,3.131344 -3.131791,8.210662 0,11.342453l65.79088,65.790433c3.131791,3.132686 8.210214,3.132686 11.342006,0l134.077351,-134.077351c1.798096,-1.798096 2.636968,-4.343347 2.259811,-6.858175zm-124.998288,82.817982c-0.286783,5.762496 -3.329094,11.581811 -9.043271,17.296435c-4.775087,4.774639 -10.229772,7.861243 -13.451043,9.053561c-0.645149,0.238911 -1.368593,-0.013869 -1.724722,-0.602646l-4.468171,-7.386106c-0.219673,-0.363288 -0.267544,-0.80487 -0.130193,-1.205292c0.137351,-0.401764 0.445609,-0.721654 0.842004,-0.874665c4.370638,-1.681772 8.613321,-4.381376 11.640421,-7.409371c4.211812,-4.211364 5.010866,-8.441967 2.137224,-11.315162c-2.563147,-2.563147 -5.865845,-2.276812 -13.086861,1.137288c-10.538925,5.094977 -18.434618,4.806852 -24.127767,-0.885402c-7.63307,-7.633517 -6.318612,-19.202354 3.268695,-28.791004c3.667775,-3.66688 7.623675,-6.423304 11.757639,-8.192766c0.671098,-0.288125 1.451362,-0.025054 1.811518,0.610252l4.152308,7.326154c0.202672,0.357472 0.242043,0.785185 0.108718,1.17308c-0.13422,0.388342 -0.428161,0.701074 -0.807555,0.858111c-3.491052,1.445993 -6.638055,3.55503 -9.353766,6.27253c-4.541545,4.54065 -4.049853,8.270613 -2.074141,10.246326c2.708999,2.708552 6.297137,1.50326 13.840728,-1.891602c10.269143,-4.725426 17.779179,-4.205996 23.625338,1.638822c3.517449,3.518344 5.32315,8.114918 5.082897,12.941456zm35.861246,-28.866167l-6.595105,6.59421c-0.489902,0.490349 -1.258533,0.559696 -1.827624,0.167327l-2.662917,-1.836124l-0.188355,0.188802c0.436214,4.427458 -1.350697,8.892497 -5.029657,12.572352c-6.520837,6.520389 -14.675574,5.188931 -19.361628,0.502876c-4.479804,-4.480251 -5.575036,-10.164899 -3.165794,-16.437877c2.012847,-5.243066 6.108335,-10.015916 9.189123,-13.096256l0.263965,-0.260833l-0.440688,-0.440688c-1.4791,-1.4791 -4.687397,-3.233798 -9.554648,1.634348c-2.436981,2.437428 -4.56123,5.857344 -5.681964,9.145278c-0.136457,0.402211 -0.444714,0.723891 -0.841557,0.876007c-0.396843,0.153458 -0.840215,0.121692 -1.211556,-0.084111l-5.319124,-2.954621c-0.611147,-0.340023 -0.888087,-1.070625 -0.655887,-1.729644c0.935958,-2.660233 3.332673,-7.950723 8.86968,-13.487283c8.841941,-8.842389 18.102201,-8.928737 26.778604,-0.251885l10.686566,10.686566c1.81107,1.81107 4.429695,4.334399 6.625975,6.075228c0.320338,0.254122 0.516746,0.632622 0.540458,1.040649c0.023712,0.408028 -0.128403,0.806213 -0.41787,1.09568zm13.674295,-13.673848l-7.527484,7.527036c-0.559696,0.559696 -1.46702,0.559696 -2.027164,0l-42.60444,-42.603993c-0.560143,-0.560591 -0.560143,-1.467468 0,-2.027611l7.527036,-7.527484c0.560143,-0.559696 1.467468,-0.559696 2.028059,0l42.603993,42.60444c0.560143,0.558801 0.560143,1.467915 0,2.027611zm29.605717,-31.502688c-1.895628,3.959926 -4.91378,8.069284 -8.727407,11.882463c-4.994312,4.994312 -10.586349,7.708233 -16.17078,7.848269c-5.612617,0.141378 -11.106674,-2.312157 -15.889814,-7.093955c-7.901957,-7.901957 -11.548256,-21.26531 -0.880033,-31.933533c4.578231,-4.578231 9.989072,-6.547233 15.647324,-5.693149c4.609549,0.696152 9.367188,3.298224 13.394671,7.327049c1.192765,1.192318 2.128276,2.325131 2.703183,3.065576c0.442925,0.570881 0.391474,1.382462 -0.118561,1.893839l-18.928994,18.928546c3.833312,3.269143 9.533172,2.158699 14.521221,-2.828902c2.709447,-2.708999 4.770613,-5.372812 6.489071,-8.383358c0.198198,-0.345839 0.53151,-0.59504 0.919852,-0.685415c0.387895,-0.090822 0.796817,-0.015212 1.127892,0.207146l5.420236,3.658827c0.590119,0.395948 0.799054,1.165026 0.492139,1.806596zm13.400935,-30.269657c-5.131664,5.131216 -13.451043,5.131216 -18.583154,-0.001342c-5.131664,-5.131216 -5.132111,-13.450596 0,-18.582707c5.132111,-5.131664 13.451491,-5.131664 18.583154,0c5.131216,5.131664 5.131216,13.451938 0,18.584049z"/>
   </g>
  </g>
 </g>
</svg>